<svg xmlns="http://www.w3.org/2000/svg" xmlns:xlink="http://www.w3.org/1999/xlink" width="512" zoomAndPan="magnify" viewBox="0 0 384 383.999986" height="512" preserveAspectRatio="xMidYMid meet" version="1.0"><defs><clipPath id="8752af8d21"><path d="M 23 31.765625 L 375 31.765625 L 375 352 L 23 352 Z M 23 31.765625 " clip-rule="nonzero"/></clipPath><clipPath id="1f46b719bc"><path d="M 0.375 39.242188 L 374.132812 39.242188 L 374.132812 352.015625 L 0.375 352.015625 Z M 0.375 39.242188 " clip-rule="nonzero"/></clipPath></defs><g clip-path="url(#8752af8d21)"><path fill="#caeefb" d="M 308.707031 55.441406 C 308.707031 60.171875 312.558594 64.019531 317.289062 64.019531 C 322.019531 64.019531 325.871094 60.171875 325.871094 55.441406 C 325.871094 50.707031 322.019531 46.859375 317.289062 46.859375 C 312.558594 46.859375 308.707031 50.707031 308.707031 55.441406 Z M 299.371094 55.441406 C 299.371094 45.554688 307.40625 37.515625 317.289062 37.515625 C 327.171875 37.515625 335.210938 45.554688 335.210938 55.441406 C 335.210938 65.320312 327.171875 73.359375 317.289062 73.359375 C 307.40625 73.359375 299.371094 65.320312 299.371094 55.441406 Z M 373.183594 351.046875 L 24.417969 351.046875 C 18.789062 265.4375 52.582031 303.710938 79.019531 273.492188 C 105.457031 243.277344 92.019531 138.527344 158.792969 138.527344 C 227.46875 138.527344 187.417969 31.765625 246.242188 31.765625 C 319.949219 31.765625 280.78125 123.882812 335.316406 123.882812 C 383.609375 123.882812 373.183594 351.046875 373.183594 351.046875 " fill-opacity="1" fill-rule="nonzero"/></g><g clip-path="url(#1f46b719bc)"><path fill="#c23331" d="M 17.296875 175.140625 C 17.941406 171.140625 19.277344 163.941406 21.332031 157.816406 C 24.363281 148.785156 31.949219 139.5625 32.566406 137.289062 C 32.945312 135.90625 32.816406 134.40625 32.664062 133.441406 C 32.578125 132.894531 32.980469 132.394531 33.535156 132.367188 L 33.910156 132.347656 L 35.292969 131.125 L 41.820312 132.902344 C 40.625 131.863281 39.867188 130.332031 39.867188 128.625 C 39.867188 125.488281 42.40625 122.945312 45.542969 122.945312 C 48.679688 122.945312 51.21875 125.488281 51.21875 128.625 C 51.21875 130.320312 50.472656 131.839844 49.292969 132.878906 L 55.808594 131.0625 L 57.199219 132.273438 L 57.578125 132.289062 C 58.128906 132.320312 58.535156 132.8125 58.453125 133.359375 C 58.304688 134.324219 58.191406 135.828125 58.574219 137.207031 C 59.207031 139.472656 66.847656 148.652344 69.933594 157.664062 C 72.03125 163.773438 73.410156 170.964844 74.082031 174.960938 C 74.375 176.703125 73.308594 178.382812 71.605469 178.855469 C 69.699219 179.386719 67.742188 178.210938 67.316406 176.277344 C 65.554688 168.335938 60.480469 149.265625 50.890625 140.929688 L 48.765625 133.296875 C 47.851562 133.929688 46.742188 134.300781 45.542969 134.300781 C 44.359375 134.300781 43.261719 133.9375 42.351562 133.320312 L 40.269531 140.964844 C 30.734375 149.359375 25.785156 168.460938 24.074219 176.414062 C 23.65625 178.351562 21.703125 179.539062 19.792969 179.019531 C 18.09375 178.554688 17.011719 176.882812 17.296875 175.140625 Z M 90.144531 162.574219 L 82.980469 162.574219 L 84.609375 112.230469 L 88.515625 112.230469 Z M 125.789062 117.878906 L 134.277344 117.878906 L 128.273438 123.878906 C 126.863281 122.242188 125.957031 120.160156 125.789062 117.878906 Z M 128.273438 110.3125 L 134.277344 116.3125 L 125.789062 116.3125 C 125.957031 114.027344 126.863281 111.949219 128.273438 110.3125 Z M 146.539062 116.3125 L 138.054688 116.3125 L 144.050781 110.3125 C 145.460938 111.949219 146.371094 114.027344 146.539062 116.3125 Z M 138.054688 117.878906 L 146.539062 117.878906 C 146.371094 120.160156 145.460938 122.242188 144.050781 123.878906 Z M 136.945312 118.984375 L 142.945312 124.984375 C 141.308594 126.394531 139.230469 127.300781 136.945312 127.472656 Z M 135.378906 127.472656 C 133.097656 127.300781 131.019531 126.394531 129.382812 124.984375 L 135.378906 118.984375 Z M 135.378906 115.207031 L 129.382812 109.207031 C 131.019531 107.796875 133.097656 106.890625 135.378906 106.71875 Z M 136.945312 106.71875 C 139.230469 106.890625 141.308594 107.796875 142.945312 109.207031 L 136.945312 115.207031 Z M 148.929688 117.09375 C 148.929688 110.058594 143.203125 104.328125 136.164062 104.328125 C 129.125 104.328125 123.398438 110.058594 123.398438 117.09375 C 123.398438 124.132812 129.125 129.859375 136.164062 129.859375 C 143.203125 129.859375 148.929688 124.132812 148.929688 117.09375 Z M 62.054688 243.351562 L 59.894531 243.351562 C 59.773438 243.78125 59.390625 244.105469 58.917969 244.105469 L 55.285156 244.105469 C 54.8125 244.105469 54.429688 243.78125 54.304688 243.351562 L 52.148438 243.351562 C 51.300781 243.351562 50.617188 242.664062 50.617188 241.820312 L 50.617188 239.429688 C 50.617188 238.585938 51.300781 237.902344 52.148438 237.902344 L 54.304688 237.902344 C 54.429688 237.472656 54.8125 237.148438 55.285156 237.148438 L 58.917969 237.148438 C 59.390625 237.148438 59.773438 237.472656 59.894531 237.902344 L 62.054688 237.902344 C 62.898438 237.902344 63.582031 238.585938 63.582031 239.429688 L 63.582031 241.820312 C 63.582031 242.664062 62.898438 243.351562 62.054688 243.351562 Z M 52.964844 271.109375 L 61.230469 271.109375 C 61.230469 272.8125 59.855469 274.195312 58.152344 274.195312 L 56.050781 274.195312 C 54.347656 274.195312 52.964844 272.8125 52.964844 271.109375 Z M 35.890625 243.644531 L 33.730469 243.644531 C 33.605469 244.078125 33.226562 244.402344 32.753906 244.402344 L 29.117188 244.402344 C 28.648438 244.402344 28.265625 244.078125 28.144531 243.644531 L 25.980469 243.644531 C 25.136719 243.644531 24.453125 242.960938 24.453125 242.117188 L 24.453125 239.730469 C 24.453125 238.886719 25.136719 238.199219 25.980469 238.199219 L 28.144531 238.199219 C 28.265625 237.765625 28.648438 237.441406 29.117188 237.441406 L 32.753906 237.441406 C 33.226562 237.441406 33.605469 237.765625 33.730469 238.199219 L 35.890625 238.199219 C 36.734375 238.199219 37.417969 238.886719 37.417969 239.730469 L 37.417969 242.117188 C 37.417969 242.960938 36.734375 243.644531 35.890625 243.644531 Z M 26.800781 271.40625 L 35.070312 271.40625 C 35.070312 273.109375 33.691406 274.488281 31.988281 274.488281 L 29.882812 274.488281 C 28.183594 274.488281 26.800781 273.109375 26.800781 271.40625 Z M 176.480469 72.636719 L 176.480469 70.339844 C 176.480469 69.519531 177.148438 68.855469 177.96875 68.855469 L 185.457031 68.855469 L 185.457031 74.125 L 177.96875 74.125 C 177.148438 74.125 176.480469 73.457031 176.480469 72.636719 Z M 69.085938 67.402344 L 75.109375 67.402344 C 76.117188 67.402344 76.9375 68.21875 76.9375 69.226562 L 76.9375 72.296875 C 76.9375 73.308594 76.117188 74.125 75.109375 74.125 L 67.070312 74.125 Z M 40.855469 53.671875 L 40.621094 53.671875 L 40.621094 49.078125 C 40.621094 43.835938 44.867188 39.585938 50.113281 39.585938 L 74.820312 39.585938 L 74.820312 50.1875 C 74.820312 52.109375 73.261719 53.671875 71.339844 53.671875 L 54.761719 53.671875 C 53.402344 53.671875 52.304688 54.769531 52.304688 56.121094 L 52.304688 82.507812 L 48.1875 82.507812 C 44.015625 82.507812 40.644531 79.109375 40.679688 74.941406 Z M 317.289062 47.1875 C 321.847656 47.1875 325.542969 50.882812 325.542969 55.4375 C 325.542969 59.996094 321.847656 63.691406 317.289062 63.691406 C 312.730469 63.691406 309.039062 59.996094 309.039062 55.4375 C 309.039062 50.882812 312.730469 47.1875 317.289062 47.1875 Z M 317.289062 66.992188 C 323.667969 66.992188 328.84375 61.820312 328.84375 55.4375 C 328.84375 49.054688 323.667969 43.882812 317.289062 43.882812 C 310.910156 43.882812 305.734375 49.054688 305.734375 55.4375 C 305.734375 61.820312 310.910156 66.992188 317.289062 66.992188 Z M 252.199219 117.535156 L 252.199219 54.164062 C 252.199219 52.375 253.652344 50.925781 255.4375 50.925781 L 275.257812 50.925781 C 277.046875 50.925781 278.496094 52.375 278.496094 54.164062 L 278.496094 63.609375 C 278.496094 64.496094 278.171875 65.351562 277.585938 66.019531 L 262.425781 83.21875 L 262.425781 117.535156 C 262.425781 120.355469 260.136719 122.644531 257.3125 122.644531 C 254.488281 122.644531 252.199219 120.355469 252.199219 117.535156 Z M 97.886719 333.65625 L 93.140625 346.523438 C 92.949219 347.039062 92.457031 347.382812 91.902344 347.382812 L 83.003906 347.382812 C 82.464844 347.382812 81.980469 347.054688 81.78125 346.554688 L 76.636719 333.6875 C 76.292969 332.824219 76.929688 331.882812 77.863281 331.882812 L 96.652344 331.882812 C 97.570312 331.882812 98.203125 332.796875 97.886719 333.65625 Z M 107.839844 327.316406 C 107.839844 327.964844 107.316406 328.492188 106.667969 328.492188 L 69.492188 328.492188 L 78.144531 350.632812 C 78.199219 350.773438 78.222656 350.917969 78.222656 351.0625 C 78.222656 351.53125 77.945312 351.972656 77.480469 352.15625 C 77.339844 352.210938 77.195312 352.238281 77.054688 352.238281 C 76.582031 352.238281 76.140625 351.953125 75.960938 351.488281 L 75.792969 351.0625 L 66.972656 328.492188 L 63.613281 328.492188 L 72.265625 350.632812 C 72.320312 350.773438 72.34375 350.917969 72.34375 351.0625 C 72.34375 351.53125 72.0625 351.972656 71.597656 352.15625 C 71.457031 352.210938 71.316406 352.238281 71.171875 352.238281 C 70.703125 352.238281 70.257812 351.953125 70.078125 351.488281 L 69.910156 351.0625 L 61.09375 328.492188 L 16.011719 328.492188 L 24.664062 350.632812 C 24.71875 350.773438 24.742188 350.917969 24.742188 351.0625 C 24.742188 351.53125 24.460938 351.972656 23.996094 352.15625 C 23.855469 352.210938 23.714844 352.238281 23.570312 352.238281 C 23.101562 352.238281 22.660156 351.953125 22.476562 351.488281 L 22.308594 351.0625 L 13.492188 328.492188 L 10.128906 328.492188 L 18.78125 350.632812 C 18.835938 350.773438 18.859375 350.917969 18.859375 351.0625 C 18.859375 351.53125 18.578125 351.972656 18.117188 352.15625 C 17.976562 352.210938 17.828125 352.238281 17.6875 352.238281 C 17.21875 352.238281 16.773438 351.953125 16.59375 351.488281 L 16.429688 351.0625 L 7.609375 328.492188 L 1.546875 328.492188 C 0.898438 328.492188 0.375 327.964844 0.375 327.316406 C 0.375 326.667969 0.898438 326.144531 1.546875 326.144531 L 2.097656 326.144531 L 13.648438 301.492188 L 94.566406 301.492188 L 104.464844 326.144531 L 106.667969 326.144531 C 107.316406 326.144531 107.839844 326.667969 107.839844 327.316406 Z M 286.28125 160.875 L 288.144531 145.425781 C 288.257812 144.480469 289.0625 143.765625 290.015625 143.765625 L 298.4375 143.765625 C 299.394531 143.765625 300.195312 144.480469 300.308594 145.425781 L 302.171875 160.875 C 302.308594 162 301.433594 162.984375 300.304688 162.984375 L 288.152344 162.984375 C 287.019531 162.984375 286.144531 162 286.28125 160.875 Z M 198.351562 152.128906 L 216.066406 152.078125 L 215.457031 172.589844 L 204.179688 175.089844 C 198.664062 195.484375 182.976562 242.550781 182.976562 242.550781 L 143.605469 242.550781 C 143.605469 242.550781 150.417969 181.757812 156.46875 168.359375 C 162.519531 154.960938 173.46875 152.078125 173.46875 152.078125 L 174.207031 149.726562 L 173.101562 148.96875 L 176.828125 141.660156 L 192.035156 147.632812 L 194.472656 152.078125 L 195.332031 152.078125 L 197.503906 148.015625 L 197.394531 145.476562 L 200.289062 146.585938 L 200.925781 151.449219 L 198.878906 150.582031 Z M 288.996094 202.929688 L 285.039062 210.15625 C 284.515625 211.113281 283.515625 211.71875 282.425781 211.742188 L 276.328125 211.882812 L 264.128906 234.171875 C 266.933594 237.300781 267.621094 241.972656 265.488281 245.871094 C 263.355469 249.769531 259.046875 251.707031 254.902344 251.027344 L 260.324219 241.117188 L 258.617188 237.1875 L 254.386719 237.867188 L 248.960938 247.777344 C 246.15625 244.644531 245.464844 239.972656 247.601562 236.078125 C 249.730469 232.179688 254.039062 230.242188 258.1875 230.921875 L 270.386719 208.632812 L 267.21875 203.421875 C 266.652344 202.488281 266.628906 201.324219 267.152344 200.363281 L 271.109375 193.136719 C 271.632812 192.175781 272.632812 191.570312 273.722656 191.546875 L 279.820312 191.40625 L 276.777344 196.960938 L 275.246094 196.996094 L 272.636719 201.769531 L 275.464844 206.414062 L 280.898438 206.292969 L 283.511719 201.519531 L 282.714844 200.214844 L 285.757812 194.660156 L 288.925781 199.867188 C 289.492188 200.800781 289.519531 201.96875 288.996094 202.929688 Z M 366.414062 181.703125 L 236.46875 181.703125 L 236.46875 351.046875 L 373.183594 351.046875 C 373.183594 351.046875 377.867188 249.003906 366.414062 181.703125 " fill-opacity="1" fill-rule="nonzero"/></g><path fill="#545454" d="M 54.390625 109.300781 L 51.050781 108.394531 L 47.035156 123.144531 C 49.34375 123.773438 50.921875 125.746094 51.175781 127.988281 C 51.191406 128.160156 51.203125 128.335938 51.207031 128.507812 C 51.210938 128.5625 51.214844 128.613281 51.210938 128.667969 C 51.199219 130.289062 50.492188 131.820312 49.296875 132.878906 L 53.449219 131.71875 L 52.707031 129.039062 L 53.136719 128.683594 Z M 39.894531 128.148438 C 40.089844 125.851562 41.667969 123.8125 44.019531 123.152344 L 39.910156 108.425781 L 36.574219 109.355469 L 37.953125 128.730469 L 38.933594 129.542969 L 39.015625 129.523438 L 37.652344 131.757812 L 37.671875 131.773438 L 41.835938 132.90625 C 40.601562 131.839844 39.917969 130.328125 39.875 128.765625 C 39.875 128.757812 39.875 128.75 39.875 128.738281 C 39.871094 128.542969 39.878906 128.347656 39.894531 128.148438 Z M 58.441406 194.601562 L 57.101562 191.425781 C 57.414062 192.214844 57.519531 193.007812 57.566406 193.792969 C 57.578125 194.1875 57.605469 194.585938 57.53125 194.980469 C 57.460938 195.375 57.359375 195.769531 57.101562 196.164062 C 56.839844 195.769531 56.738281 195.375 56.671875 194.980469 C 56.59375 194.585938 56.625 194.1875 56.636719 193.792969 C 56.683594 193.003906 56.789062 192.214844 57.101562 191.425781 L 55.761719 194.601562 C 55.671875 194.804688 55.628906 195.027344 55.628906 195.25 L 55.542969 237.148438 L 58.65625 237.148438 L 58.570312 195.25 C 58.570312 195.027344 58.527344 194.804688 58.441406 194.601562 Z M 32.550781 191.425781 L 29.324219 191.425781 L 28.710938 197.296875 L 29.707031 197.296875 L 28.726562 237.523438 C 28.847656 237.472656 28.980469 237.441406 29.117188 237.441406 L 32.753906 237.441406 C 32.890625 237.441406 33.023438 237.472656 33.144531 237.523438 L 32.167969 197.296875 L 33.160156 197.296875 Z M 59.089844 55.910156 L 65.921875 55.910156 L 65.921875 47.929688 L 59.089844 47.929688 Z M 76.9375 72.257812 L 79.765625 72.257812 L 79.765625 78.339844 L 85.222656 73.757812 L 85.222656 78.339844 L 90.679688 73.757812 L 90.679688 78.339844 L 96.140625 73.757812 L 96.140625 78.339844 L 101.597656 73.757812 L 101.597656 78.339844 L 107.054688 73.757812 L 107.054688 78.339844 L 112.511719 73.757812 L 112.511719 78.339844 L 117.96875 73.757812 L 117.96875 78.339844 L 123.429688 73.757812 L 123.429688 78.339844 L 128.886719 73.757812 L 128.886719 78.339844 L 134.347656 73.757812 L 134.347656 78.339844 L 139.804688 73.757812 L 139.804688 78.339844 L 145.261719 73.757812 L 145.261719 78.339844 L 150.722656 73.757812 L 150.722656 78.339844 L 156.179688 73.757812 L 156.179688 78.339844 L 161.636719 73.757812 L 161.636719 78.339844 L 167.09375 73.757812 L 167.09375 78.339844 L 174.339844 72.257812 L 176.480469 72.257812 L 176.480469 70.339844 C 176.480469 70.191406 176.511719 70.046875 176.554688 69.910156 L 76.9375 69.910156 Z M 266.875 73.515625 L 278.367188 73.515625 C 279.359375 73.515625 280.164062 72.710938 280.164062 71.714844 L 280.164062 68.742188 C 280.164062 67.75 279.359375 66.941406 278.367188 66.941406 L 266.875 66.941406 C 265.878906 66.941406 265.074219 67.75 265.074219 68.742188 L 265.074219 71.714844 C 265.074219 72.710938 265.878906 73.515625 266.875 73.515625 Z M 317.289062 124.273438 L 309.90625 124.273438 L 309.90625 166.640625 L 317.289062 166.640625 Z M 329.113281 229.589844 L 329.113281 202.730469 L 324.414062 202.730469 L 324.414062 229.589844 Z M 316.511719 234.382812 L 287.261719 234.382812 L 287.261719 239.082031 L 316.511719 239.082031 Z M 316.511719 241.449219 L 287.261719 241.449219 L 287.261719 246.144531 L 316.511719 246.144531 Z M 331.480469 229.589844 L 336.179688 229.589844 L 336.179688 202.730469 L 331.480469 202.730469 Z M 324.4375 286.394531 L 324.4375 292.65625 L 342.050781 292.65625 L 342.050781 293.460938 L 324.4375 293.460938 L 324.4375 299.722656 L 342.050781 299.722656 L 342.050781 332.398438 L 254.308594 332.398438 L 254.308594 238.007812 L 254.386719 237.867188 L 258.617188 237.1875 L 260.324219 241.117188 L 254.902344 251.027344 C 259.046875 251.707031 263.355469 249.769531 265.488281 245.871094 C 267.621094 241.972656 266.933594 237.300781 264.128906 234.171875 L 276.328125 211.882812 L 282.425781 211.742188 C 283.515625 211.71875 284.515625 211.113281 285.039062 210.15625 L 288.996094 202.929688 C 289.519531 201.96875 289.492188 200.800781 288.925781 199.867188 L 285.761719 194.664062 L 342.050781 194.664062 L 342.050781 286.394531 Z M 258.1875 230.921875 L 270.386719 208.632812 L 267.21875 203.421875 C 266.652344 202.488281 266.628906 201.324219 267.152344 200.363281 L 270.273438 194.664062 L 254.308594 194.664062 L 254.308594 231.035156 C 255.570312 230.753906 256.886719 230.710938 258.1875 230.921875 Z M 285.753906 194.664062 L 282.714844 200.214844 L 283.511719 201.519531 L 280.898438 206.292969 L 275.464844 206.414062 L 272.636719 201.769531 L 275.246094 196.996094 L 276.777344 196.960938 L 278.035156 194.664062 L 285.753906 194.664062 " fill-opacity="1" fill-rule="nonzero"/><path fill="#8e5b6d" d="M 299.78125 141.167969 C 298.304688 138.972656 289.519531 136.894531 287.167969 136.039062 C 284.820312 135.183594 274.863281 142.632812 274.863281 142.632812 C 274.574219 142.6875 274.316406 142.765625 274.070312 142.847656 L 248.164062 149.984375 C 243.117188 151.375 237.914062 152.078125 232.679688 152.078125 L 216.066406 152.078125 L 215.457031 172.589844 L 240.917969 167.382812 C 252.269531 165.90625 263.101562 161.738281 272.515625 155.222656 L 274.3125 153.980469 C 275.507812 154.378906 277.71875 154.925781 280.726562 154.847656 C 285.367188 154.726562 289.519531 156.925781 291.71875 155.335938 C 293.917969 153.75 291.472656 152.773438 290.253906 150.9375 C 289.03125 149.101562 286.710938 146.054688 288.246094 145.320312 C 289.78125 144.585938 294.527344 144.832031 295.261719 145.074219 C 295.992188 145.320312 299.292969 149.59375 300.882812 148.863281 C 302.46875 148.128906 301.257812 143.359375 299.78125 141.167969 Z M 268.109375 209.097656 C 265.789062 209.109375 254.835938 214.472656 254.835938 214.472656 L 229.769531 209.730469 C 224.453125 208.726562 219.011719 208.605469 213.65625 209.371094 L 207.164062 210.039062 C 204.765625 203.40625 201.261719 197.222656 196.804688 191.757812 L 194.503906 188.9375 L 174.632812 200.015625 L 191.488281 222.125 C 195.285156 227.113281 201.285156 229.921875 207.550781 229.644531 L 254.835938 227.574219 C 259.433594 232.324219 269.320312 232.957031 269.320312 232.957031 C 270.5625 232.898438 272.578125 231.375 272.578125 231.375 C 272.578125 231.375 274.261719 231 274.925781 230.085938 C 275.636719 229.101562 274.925781 227.574219 274.925781 227.574219 C 278.738281 227.574219 277.058594 223.707031 277.058594 223.707031 C 280.796875 223.292969 278.738281 218.136719 278.738281 218.136719 C 281.179688 217.40625 279.222656 214.230469 278.003906 212.761719 C 276.78125 211.296875 270.429688 209.082031 268.109375 209.097656 Z M 192.035156 147.632812 L 194.472656 152.078125 L 195.332031 152.078125 L 197.503906 148.015625 L 197.421875 146.09375 L 197.34375 144.269531 C 197.316406 143.570312 198.023438 143.082031 198.660156 143.363281 C 200.984375 144.375 204.628906 145.191406 206.5 143.949219 C 209.53125 141.949219 211.132812 130.441406 210.882812 120.664062 C 210.664062 112.050781 203.519531 105.054688 194.914062 105.296875 C 190.984375 105.410156 187.203125 106.382812 184.625 108.398438 C 181.613281 110.753906 180.425781 117.148438 180.753906 124.332031 C 181.027344 130.378906 179.988281 136.40625 177.714844 142.007812 Z M 253.808594 316.996094 L 264.003906 331.941406 L 275.890625 331.941406 L 269.808594 316.996094 Z M 135.914062 315.867188 L 146.546875 318.398438 L 146.160156 331.207031 L 132.855469 328.4375 C 129.84375 317.921875 135.914062 315.867188 135.914062 315.867188 " fill-opacity="1" fill-rule="nonzero"/><path fill="#3d3361" d="M 48.75 133.632812 C 48.824219 133.632812 48.902344 133.609375 48.972656 133.5625 C 50.386719 132.585938 51.296875 131.082031 51.53125 129.433594 C 51.554688 129.386719 51.570312 129.339844 51.574219 129.292969 C 51.886719 126.519531 50.300781 123.957031 47.746094 122.96875 L 49.09375 118.015625 C 49.09375 118.015625 50.09375 116.78125 50.382812 115.710938 C 50.675781 114.640625 50.496094 112.796875 50.496094 112.796875 L 49.894531 112.632812 L 47.136719 122.769531 C 46.929688 122.710938 46.714844 122.832031 46.65625 123.042969 C 46.601562 123.25 46.722656 123.464844 46.929688 123.523438 C 49.035156 124.09375 50.511719 125.839844 50.78125 127.90625 C 50.78125 127.921875 50.777344 127.9375 50.777344 127.953125 C 51.007812 129.898438 50.144531 131.804688 48.527344 132.917969 C 48.347656 133.042969 48.300781 133.285156 48.425781 133.464844 C 48.5 133.574219 48.625 133.632812 48.75 133.632812 Z M 66.464844 172.699219 C 66.804688 174.046875 67.085938 175.253906 67.316406 176.277344 C 67.742188 178.210938 69.699219 179.386719 71.605469 178.855469 C 73.308594 178.382812 74.375 176.703125 74.082031 174.960938 C 73.410156 170.964844 72.03125 163.773438 69.933594 157.664062 C 67.578125 150.785156 62.574219 143.8125 60.050781 139.890625 C 59.296875 140.527344 58.324219 141.652344 58.246094 143.242188 C 58.113281 145.867188 65.84375 155.785156 67.269531 161.929688 C 68.511719 167.285156 69.214844 170.71875 66.464844 172.699219 Z M 58.320312 134.734375 L 53.519531 139.957031 L 59.132812 138.394531 C 58.847656 137.898438 58.65625 137.496094 58.574219 137.207031 C 58.34375 136.378906 58.292969 135.507812 58.324219 134.734375 Z M 43.570312 134.304688 C 43.613281 134.316406 43.652344 134.324219 43.699219 134.324219 C 43.859375 134.324219 44.011719 134.222656 44.066406 134.058594 C 44.136719 133.855469 44.027344 133.632812 43.824219 133.5625 C 41.964844 132.921875 40.621094 131.320312 40.320312 129.382812 C 40.316406 129.347656 40.300781 129.320312 40.289062 129.292969 C 40.289062 129.273438 40.296875 129.253906 40.292969 129.238281 C 39.984375 126.636719 41.59375 124.238281 44.125 123.53125 C 44.332031 123.472656 44.453125 123.257812 44.394531 123.050781 C 44.335938 122.84375 44.121094 122.71875 43.914062 122.777344 L 41.09375 112.664062 L 40.492188 112.828125 C 40.492188 112.828125 40.320312 114.671875 40.621094 115.742188 C 40.917969 116.804688 41.925781 118.035156 41.925781 118.035156 L 43.304688 122.984375 C 40.761719 123.988281 39.1875 126.554688 39.515625 129.328125 C 39.519531 129.367188 39.535156 129.402344 39.546875 129.4375 C 39.546875 129.460938 39.542969 129.480469 39.546875 129.503906 C 39.894531 131.730469 41.433594 133.570312 43.570312 134.304688 Z M 19.792969 179.019531 C 21.703125 179.539062 23.65625 178.351562 24.074219 176.414062 C 24.292969 175.390625 24.570312 174.179688 24.898438 172.832031 C 22.132812 170.863281 22.820312 167.429688 24.027344 162.066406 C 25.414062 155.914062 33.082031 145.945312 32.933594 143.320312 C 32.84375 141.730469 31.867188 140.617188 31.105469 139.980469 C 28.609375 143.917969 23.648438 150.921875 21.332031 157.816406 C 19.277344 163.941406 17.941406 171.140625 17.296875 175.140625 C 17.011719 176.882812 18.09375 178.554688 19.792969 179.019531 Z M 32.804688 134.816406 C 32.835938 135.589844 32.792969 136.460938 32.566406 137.289062 C 32.488281 137.578125 32.296875 137.980469 32.015625 138.476562 L 37.636719 140.007812 Z M 45.542969 132.316406 C 47.582031 132.316406 49.238281 130.660156 49.238281 128.625 C 49.238281 126.585938 47.582031 124.929688 45.542969 124.929688 C 43.507812 124.929688 41.847656 126.585938 41.847656 128.625 C 41.847656 130.660156 43.507812 132.316406 45.542969 132.316406 Z M 45.542969 133.101562 C 43.074219 133.101562 41.066406 131.089844 41.066406 128.625 C 41.066406 126.15625 43.074219 124.148438 45.542969 124.148438 C 48.011719 124.148438 50.019531 126.15625 50.019531 128.625 C 50.019531 131.089844 48.011719 133.101562 45.542969 133.101562 Z M 89.542969 180.527344 C 90.589844 180.527344 91.429688 179.667969 91.402344 178.621094 L 90.707031 149.875 C 90.683594 148.867188 89.859375 148.0625 88.847656 148.0625 L 84.277344 148.0625 C 83.265625 148.0625 82.441406 148.867188 82.417969 149.875 L 81.722656 178.621094 C 81.699219 179.667969 82.535156 180.527344 83.582031 180.527344 Z M 100.367188 112.054688 C 98.136719 108.882812 93 107.53125 91.285156 107.15625 L 91.285156 105.878906 C 91.285156 105.25 90.777344 104.738281 90.144531 104.738281 L 82.980469 104.738281 C 82.351562 104.738281 81.839844 105.25 81.839844 105.878906 L 81.839844 107.617188 L 79.546875 107.617188 L 79.546875 106.6875 C 79.546875 106.03125 79.015625 105.5 78.359375 105.5 L 75.222656 105.5 C 74.566406 105.5 74.035156 106.03125 74.035156 106.6875 L 74.035156 112.203125 C 74.035156 112.859375 74.566406 113.390625 75.222656 113.390625 L 78.359375 113.390625 C 79.015625 113.390625 79.546875 112.859375 79.546875 112.203125 L 79.546875 111.273438 L 81.839844 111.273438 L 81.839844 113.007812 C 81.839844 113.636719 82.351562 114.148438 82.980469 114.148438 L 90.144531 114.148438 C 90.777344 114.148438 91.285156 113.636719 91.285156 113.007812 L 91.285156 111.921875 C 94.308594 110.757812 97.71875 111.96875 99.648438 112.90625 C 100.183594 113.167969 100.710938 112.546875 100.367188 112.054688 Z M 139.121094 117.09375 C 139.121094 115.460938 137.796875 114.132812 136.164062 114.132812 C 134.53125 114.132812 133.203125 115.460938 133.203125 117.09375 C 133.203125 118.730469 134.53125 120.054688 136.164062 120.054688 C 137.796875 120.054688 139.121094 118.730469 139.121094 117.09375 Z M 127.265625 127.953125 C 127.789062 127.953125 128.277344 127.746094 128.644531 127.378906 L 131.082031 124.945312 C 131.847656 124.183594 131.847656 122.9375 131.082031 122.175781 C 130.714844 121.804688 130.21875 121.605469 129.699219 121.605469 C 129.175781 121.605469 128.683594 121.804688 128.316406 122.175781 L 125.882812 124.613281 C 125.511719 124.980469 125.308594 125.472656 125.308594 125.996094 C 125.308594 126.519531 125.511719 127.007812 125.882812 127.378906 C 126.25 127.746094 126.742188 127.953125 127.265625 127.953125 Z M 128.976562 117.09375 C 128.976562 116.015625 128.101562 115.140625 127.023438 115.140625 L 123.578125 115.140625 C 122.5 115.140625 121.621094 116.015625 121.621094 117.09375 C 121.621094 118.175781 122.5 119.050781 123.578125 119.050781 L 127.023438 119.050781 C 128.101562 119.050781 128.976562 118.175781 128.976562 117.09375 Z M 131.082031 109.246094 L 128.644531 106.8125 C 128.277344 106.441406 127.789062 106.238281 127.265625 106.238281 C 126.742188 106.238281 126.25 106.441406 125.882812 106.8125 C 125.511719 107.183594 125.308594 107.671875 125.308594 108.195312 C 125.308594 108.71875 125.511719 109.207031 125.882812 109.578125 L 128.316406 112.015625 C 128.683594 112.382812 129.175781 112.585938 129.699219 112.585938 C 130.21875 112.585938 130.714844 112.382812 131.082031 112.015625 C 131.847656 111.25 131.847656 110.007812 131.082031 109.246094 Z M 142.628906 112.585938 C 143.152344 112.585938 143.644531 112.382812 144.011719 112.015625 L 146.445312 109.578125 C 147.207031 108.8125 147.207031 107.574219 146.445312 106.8125 C 146.078125 106.441406 145.585938 106.238281 145.066406 106.238281 C 144.539062 106.238281 144.050781 106.441406 143.679688 106.8125 L 141.246094 109.246094 C 140.484375 110.007812 140.484375 111.25 141.246094 112.015625 C 141.613281 112.382812 142.105469 112.585938 142.628906 112.585938 Z M 141.246094 124.945312 L 143.679688 127.378906 C 144.050781 127.746094 144.539062 127.953125 145.066406 127.953125 C 145.585938 127.953125 146.078125 127.746094 146.445312 127.378906 C 147.207031 126.613281 147.207031 125.375 146.445312 124.613281 L 144.011719 122.175781 C 143.644531 121.804688 143.152344 121.605469 142.628906 121.605469 C 142.105469 121.605469 141.613281 121.804688 141.246094 122.175781 C 140.484375 122.9375 140.484375 124.183594 141.246094 124.945312 Z M 150.707031 117.09375 C 150.707031 116.015625 149.828125 115.140625 148.75 115.140625 L 145.308594 115.140625 C 144.226562 115.140625 143.351562 116.015625 143.351562 117.09375 C 143.351562 118.175781 144.226562 119.050781 145.308594 119.050781 L 148.75 119.050781 C 149.828125 119.050781 150.707031 118.175781 150.707031 117.09375 Z M 134.207031 126.238281 L 134.207031 129.679688 C 134.207031 130.761719 135.085938 131.636719 136.164062 131.636719 C 137.242188 131.636719 138.117188 130.761719 138.117188 129.679688 L 138.117188 126.238281 C 138.117188 125.160156 137.242188 124.28125 136.164062 124.28125 C 135.085938 124.28125 134.207031 125.160156 134.207031 126.238281 Z M 138.117188 107.953125 L 138.117188 104.507812 C 138.117188 103.429688 137.242188 102.550781 136.164062 102.550781 C 135.085938 102.550781 134.207031 103.429688 134.207031 104.507812 L 134.207031 107.953125 C 134.207031 109.03125 135.085938 109.910156 136.164062 109.910156 C 137.242188 109.910156 138.117188 109.03125 138.117188 107.953125 Z M 56.636719 193.792969 C 56.625 194.1875 56.59375 194.585938 56.671875 194.980469 C 56.738281 195.375 56.839844 195.769531 57.101562 196.164062 C 57.359375 195.769531 57.460938 195.375 57.53125 194.980469 C 57.605469 194.585938 57.578125 194.1875 57.566406 193.792969 C 57.519531 193.003906 57.414062 192.214844 57.101562 191.425781 C 56.789062 192.214844 56.683594 193.003906 56.636719 193.792969 Z M 51.8125 269.132812 C 52.066406 270.6875 53.410156 271.824219 54.980469 271.824219 L 59.21875 271.824219 C 60.792969 271.824219 62.132812 270.6875 62.386719 269.132812 L 62.878906 266.160156 C 63.816406 260.480469 63.816406 254.691406 62.878906 249.011719 L 62.386719 246.039062 C 62.132812 244.484375 60.792969 243.351562 59.21875 243.351562 L 54.980469 243.351562 C 53.410156 243.351562 52.066406 244.484375 51.8125 246.039062 L 51.320312 249.011719 C 50.382812 254.691406 50.382812 260.480469 51.320312 266.160156 Z M 33.054688 272.121094 C 34.628906 272.121094 35.96875 270.980469 36.226562 269.429688 L 36.714844 266.457031 C 37.652344 260.78125 37.652344 254.984375 36.714844 249.308594 L 36.226562 246.335938 C 35.96875 244.785156 34.628906 243.644531 33.054688 243.644531 L 28.816406 243.644531 C 27.246094 243.644531 25.902344 244.785156 25.644531 246.335938 L 25.15625 249.308594 C 24.21875 254.984375 24.21875 260.78125 25.15625 266.457031 L 25.644531 269.429688 C 25.902344 270.980469 27.246094 272.121094 28.816406 272.121094 Z M 43.539062 75.382812 C 43.527344 76.65625 44.015625 77.851562 44.914062 78.757812 C 45.808594 79.660156 47.003906 80.160156 48.277344 80.160156 L 59.046875 80.160156 C 61.109375 80.160156 62.921875 78.839844 63.554688 76.882812 L 72.3125 49.765625 C 72.785156 48.308594 72.539062 46.765625 71.640625 45.523438 C 70.738281 44.285156 69.339844 43.574219 67.808594 43.574219 L 48.511719 43.574219 C 45.921875 43.574219 43.800781 45.679688 43.777344 48.269531 Z M 41.578125 82.0625 C 39.789062 80.261719 38.820312 77.875 38.84375 75.339844 L 39.082031 48.230469 C 39.125 43.074219 43.355469 38.878906 48.511719 38.878906 L 157.476562 38.878906 C 167.625 38.878906 176.667969 44.949219 180.507812 54.34375 L 187.628906 71.683594 C 188.121094 72.882812 187.546875 74.257812 186.347656 74.746094 C 186.054688 74.867188 185.753906 74.925781 185.457031 74.925781 C 184.53125 74.925781 183.65625 74.371094 183.285156 73.46875 L 176.164062 56.125 C 173.042969 48.5 165.710938 43.574219 157.476562 43.574219 L 75.957031 43.574219 C 77.3125 45.886719 77.621094 48.617188 76.785156 51.210938 L 68.019531 78.324219 C 66.761719 82.230469 63.152344 84.855469 59.046875 84.855469 L 48.277344 84.855469 C 45.742188 84.855469 43.363281 83.863281 41.578125 82.0625 Z M 300.152344 55.4375 C 300.152344 64.902344 307.824219 72.578125 317.289062 72.578125 C 320.160156 72.578125 322.863281 71.867188 325.242188 70.617188 C 326.148438 70.140625 327.011719 69.585938 327.8125 68.960938 C 327.824219 68.949219 327.832031 68.941406 327.84375 68.9375 C 328.109375 68.730469 328.363281 68.515625 328.613281 68.296875 C 328.613281 68.296875 328.617188 68.292969 328.617188 68.292969 C 329.382812 67.621094 330.082031 66.878906 330.714844 66.082031 C 330.722656 66.074219 330.730469 66.066406 330.734375 66.058594 C 330.941406 65.792969 331.144531 65.523438 331.335938 65.25 C 331.925781 64.410156 332.4375 63.515625 332.871094 62.574219 C 333.589844 61.003906 334.078125 59.308594 334.296875 57.527344 C 334.378906 56.839844 334.425781 56.144531 334.425781 55.4375 C 334.425781 45.972656 326.753906 38.300781 317.289062 38.300781 C 307.824219 38.300781 300.152344 45.972656 300.152344 55.4375 Z M 298.0625 55.4375 C 298.0625 44.824219 306.671875 36.214844 317.289062 36.214844 C 327.90625 36.214844 336.515625 44.824219 336.515625 55.4375 C 336.515625 58.574219 335.757812 61.53125 334.425781 64.144531 L 334.425781 89.691406 L 331.40625 87.511719 L 328.796875 88.386719 L 327.148438 87.515625 L 325.242188 88.675781 L 325.242188 72.9375 C 322.816406 74.042969 320.128906 74.660156 317.289062 74.660156 C 306.671875 74.660156 298.0625 66.054688 298.0625 55.4375 Z M 254.964844 114.652344 L 254.964844 117.265625 C 254.964844 118.691406 256.121094 119.847656 257.550781 119.847656 C 258.972656 119.847656 260.128906 118.691406 260.128906 117.265625 L 260.128906 114.652344 C 260.128906 113.226562 258.972656 112.070312 257.550781 112.070312 C 256.121094 112.070312 254.964844 113.226562 254.964844 114.652344 Z M 264.511719 59.035156 C 264.511719 58.605469 264.164062 58.253906 263.730469 58.253906 L 255.382812 58.253906 C 254.949219 58.253906 254.601562 58.605469 254.601562 59.035156 C 254.601562 59.46875 254.949219 59.820312 255.382812 59.820312 L 263.730469 59.820312 C 264.164062 59.820312 264.511719 59.46875 264.511719 59.035156 Z M 252.199219 56.222656 L 278.496094 56.222656 C 278.929688 56.222656 279.28125 55.871094 279.28125 55.441406 C 279.28125 55.007812 278.929688 54.652344 278.496094 54.652344 L 252.199219 54.652344 C 251.765625 54.652344 251.417969 55.007812 251.417969 55.441406 C 251.417969 55.871094 251.765625 56.222656 252.199219 56.222656 Z M 278.792969 66.761719 L 277.226562 73.335938 C 277.125 73.757812 277.382812 74.175781 277.804688 74.277344 C 277.867188 74.292969 277.929688 74.300781 277.988281 74.300781 C 278.34375 74.300781 278.664062 74.058594 278.75 73.699219 L 280.3125 67.125 C 280.414062 66.703125 280.152344 66.28125 279.730469 66.183594 C 279.316406 66.082031 278.890625 66.339844 278.792969 66.761719 Z M 276.007812 66.183594 C 275.589844 66.082031 275.167969 66.339844 275.066406 66.761719 L 273.5 73.335938 C 273.488281 73.398438 273.496094 73.457031 273.496094 73.515625 L 271.34375 73.515625 L 272.863281 67.125 C 272.964844 66.703125 272.707031 66.28125 272.285156 66.183594 C 271.867188 66.082031 271.441406 66.339844 271.34375 66.761719 L 269.777344 73.335938 C 269.683594 73.742188 269.925781 74.144531 270.320312 74.261719 L 269.488281 75.203125 L 269.488281 92.65625 C 269.488281 93.433594 270.121094 94.0625 270.894531 94.0625 C 271.589844 94.0625 272.179688 93.554688 272.285156 92.867188 L 275.246094 73.515625 L 275.070312 73.515625 L 276.589844 67.125 C 276.691406 66.703125 276.429688 66.28125 276.007812 66.183594 Z M 267.621094 66.761719 L 266.050781 73.335938 C 265.953125 73.757812 266.210938 74.175781 266.632812 74.277344 C 266.695312 74.292969 266.757812 74.300781 266.816406 74.300781 C 267.171875 74.300781 267.492188 74.058594 267.578125 73.699219 L 269.140625 67.125 C 269.242188 66.703125 268.980469 66.28125 268.558594 66.183594 C 268.144531 66.082031 267.71875 66.339844 267.621094 66.761719 Z M 258.847656 46.285156 C 258.847656 43.121094 261.625 40.589844 264.871094 41.007812 C 267.550781 41.355469 269.488281 43.765625 269.488281 46.46875 L 269.488281 50.925781 L 275.257812 50.925781 C 275.425781 50.925781 275.589844 50.949219 275.75 50.976562 L 275.75 46.285156 C 275.75 39.703125 270.238281 34.390625 263.585938 34.714844 C 257.363281 35.027344 252.589844 40.394531 252.589844 46.621094 L 252.589844 46.839844 L 258.847656 46.839844 Z M 76.636719 333.6875 L 81.78125 346.554688 C 81.980469 347.054688 82.464844 347.382812 83.003906 347.382812 L 91.902344 347.382812 C 92.457031 347.382812 92.949219 347.039062 93.140625 346.523438 L 97.886719 333.65625 C 98.203125 332.796875 97.570312 331.882812 96.652344 331.882812 L 77.863281 331.882812 C 76.929688 331.882812 76.292969 332.824219 76.636719 333.6875 Z M 69.492188 328.492188 L 104.527344 328.492188 L 96.65625 351.0625 L 78.222656 351.0625 C 78.222656 350.917969 78.199219 350.773438 78.144531 350.632812 Z M 10.128906 328.492188 L 18.78125 350.632812 C 18.835938 350.773438 18.859375 350.917969 18.859375 351.0625 L 22.308594 351.0625 L 13.492188 328.492188 Z M 63.613281 328.492188 L 72.265625 350.632812 C 72.320312 350.773438 72.34375 350.917969 72.34375 351.0625 L 75.792969 351.0625 L 66.972656 328.492188 Z M 2.042969 328.492188 L 11.558594 351.0625 L 16.429688 351.0625 L 7.609375 328.492188 Z M 16.011719 328.492188 L 24.664062 350.632812 C 24.71875 350.773438 24.742188 350.917969 24.742188 351.0625 L 69.910156 351.0625 L 61.09375 328.492188 Z M 25.449219 301 L 13.769531 326.144531 L 16.359375 326.144531 L 27.578125 301.988281 C 27.851562 301.398438 27.59375 300.703125 27.007812 300.429688 C 26.417969 300.15625 25.71875 300.414062 25.449219 301 Z M 8.449219 326.144531 L 10.476562 326.144531 L 21.695312 301.988281 C 21.96875 301.398438 21.714844 300.703125 21.125 300.429688 C 20.535156 300.15625 19.839844 300.414062 19.5625 301 L 7.886719 326.144531 Z M 67.8125 326.144531 L 69.441406 326.144531 L 78.15625 301.890625 C 78.378906 301.28125 78.058594 300.609375 77.449219 300.390625 C 76.839844 300.171875 76.167969 300.484375 75.949219 301.09375 L 66.949219 326.144531 Z M 61.917969 326.144531 L 63.5625 326.144531 L 72.277344 301.890625 C 72.496094 301.28125 72.175781 300.609375 71.570312 300.390625 C 70.957031 300.171875 70.289062 300.484375 70.066406 301.09375 L 61.070312 326.144531 Z M 77.863281 323.617188 L 96.652344 323.617188 C 97.582031 323.617188 98.21875 322.675781 97.875 321.808594 L 92.730469 308.949219 C 92.53125 308.449219 92.046875 308.117188 91.507812 308.117188 L 82.609375 308.117188 C 82.058594 308.117188 81.5625 308.460938 81.371094 308.980469 L 76.625 321.84375 C 76.308594 322.703125 76.945312 323.617188 77.863281 323.617188 Z M 44.484375 295.15625 L 61.449219 295.15625 L 64.429688 301.492188 L 67.027344 301.492188 L 63.253906 293.484375 C 63.058594 293.070312 62.644531 292.808594 62.191406 292.808594 L 43.804688 292.808594 C 43.378906 292.808594 42.992188 293.035156 42.78125 293.402344 L 38.183594 301.492188 L 40.878906 301.492188 Z M 277.058594 224.488281 C 277.34375 224.488281 277.621094 224.335938 277.757812 224.0625 C 277.953125 223.679688 277.800781 223.203125 277.417969 223.007812 L 269.941406 219.199219 C 269.554688 219.003906 269.085938 219.15625 268.886719 219.539062 C 268.691406 219.925781 268.84375 220.394531 269.230469 220.59375 L 276.703125 224.40625 C 276.816406 224.460938 276.941406 224.488281 277.058594 224.488281 Z M 278.738281 218.917969 C 278.96875 218.917969 279.199219 218.816406 279.351562 218.621094 C 279.617188 218.28125 279.558594 217.789062 279.222656 217.523438 L 274.085938 213.480469 C 273.742188 213.214844 273.253906 213.273438 272.984375 213.613281 C 272.71875 213.953125 272.777344 214.445312 273.117188 214.714844 L 278.25 218.75 C 278.394531 218.867188 278.566406 218.917969 278.738281 218.917969 Z M 173.328125 199.011719 L 162.558594 184.609375 C 162.300781 184.261719 161.808594 184.191406 161.464844 184.449219 C 161.117188 184.707031 161.046875 185.199219 161.304688 185.546875 L 172.472656 200.480469 C 172.625 200.6875 172.859375 200.796875 173.101562 200.796875 C 173.222656 200.796875 173.34375 200.769531 173.460938 200.710938 L 194.863281 189.632812 C 195.0625 189.53125 195.207031 189.351562 195.261719 189.132812 C 195.316406 188.917969 195.277344 188.691406 195.15625 188.503906 L 186.695312 175.878906 C 181.683594 160.253906 174.535156 151.222656 174.535156 151.222656 C 169.976562 148.886719 168.324219 153.691406 168.324219 153.691406 C 168.324219 153.691406 169.933594 156.242188 172.050781 160.289062 C 173.261719 160.648438 174.421875 161.210938 175.496094 161.972656 L 193.367188 188.648438 Z M 274.925781 228.355469 C 275.257812 228.355469 275.566406 228.140625 275.671875 227.8125 C 275.800781 227.402344 275.574219 226.960938 275.164062 226.828125 L 267.105469 224.257812 C 266.695312 224.125 266.253906 224.351562 266.121094 224.765625 C 265.992188 225.175781 266.21875 225.613281 266.628906 225.746094 L 274.6875 228.316406 C 274.765625 228.34375 274.847656 228.355469 274.925781 228.355469 Z M 266.042969 229.316406 C 265.621094 229.238281 265.207031 229.511719 265.125 229.9375 C 265.042969 230.363281 265.320312 230.773438 265.75 230.855469 L 272.429688 232.144531 C 272.480469 232.152344 272.527344 232.15625 272.578125 232.15625 C 272.945312 232.15625 273.273438 231.898438 273.347656 231.519531 C 273.429688 231.097656 273.152344 230.6875 272.726562 230.605469 Z M 277.71875 181.703125 L 366.414062 181.703125 C 366.023438 179.394531 365.613281 177.128906 365.179688 174.910156 C 364.628906 172.074219 364.046875 169.316406 363.429688 166.640625 L 336.515625 166.640625 L 336.515625 109.023438 C 336.515625 101.6875 330.546875 95.71875 323.210938 95.71875 C 315.875 95.71875 309.90625 101.6875 309.90625 109.023438 L 309.90625 121.886719 L 308.542969 121.886719 C 307.789062 121.886719 307.175781 122.496094 307.175781 123.25 L 307.175781 125.292969 C 307.175781 126.046875 307.789062 126.660156 308.542969 126.660156 L 319.019531 126.660156 C 319.769531 126.660156 320.382812 126.046875 320.382812 125.292969 L 320.382812 123.25 C 320.382812 122.496094 319.769531 121.886719 319.019531 121.886719 L 317.214844 121.886719 L 317.214844 109.023438 C 317.214844 105.71875 319.90625 103.027344 323.210938 103.027344 C 326.515625 103.027344 329.203125 105.71875 329.203125 109.023438 L 329.203125 166.640625 L 298.867188 166.640625 L 298.867188 162.984375 L 290.085938 162.984375 L 290.085938 166.640625 L 224.441406 166.640625 L 224.441406 181.703125 Z M 299.414062 161.582031 C 299.429688 161.785156 299.601562 161.941406 299.804688 161.941406 C 299.816406 161.941406 299.828125 161.941406 299.835938 161.941406 C 300.050781 161.921875 300.214844 161.734375 300.195312 161.515625 L 299.117188 148.417969 C 298.84375 148.238281 298.5625 148.027344 298.28125 147.796875 Z M 297.015625 161.941406 C 297.023438 161.941406 297.027344 161.941406 297.035156 161.941406 C 297.25 161.933594 297.414062 161.746094 297.40625 161.535156 L 296.785156 146.421875 C 296.523438 146.164062 296.28125 145.925781 296.0625 145.71875 C 296.015625 145.789062 295.980469 145.867188 295.984375 145.957031 L 296.625 161.566406 C 296.632812 161.777344 296.808594 161.941406 297.015625 161.941406 Z M 294.226562 161.941406 C 294.441406 161.941406 294.617188 161.765625 294.617188 161.550781 L 294.617188 145.941406 C 294.617188 145.726562 294.441406 145.550781 294.226562 145.550781 C 294.011719 145.550781 293.835938 145.726562 293.835938 145.941406 L 293.835938 161.550781 C 293.835938 161.765625 294.011719 161.941406 294.226562 161.941406 Z M 291.421875 161.941406 C 291.425781 161.941406 291.433594 161.941406 291.4375 161.941406 C 291.644531 161.941406 291.820312 161.777344 291.828125 161.566406 L 292.097656 155.023438 C 291.992188 155.125 291.867188 155.230469 291.71875 155.335938 C 291.585938 155.433594 291.441406 155.515625 291.292969 155.585938 L 291.046875 161.535156 C 291.039062 161.746094 291.203125 161.933594 291.421875 161.941406 Z M 292.46875 145.957031 C 292.476562 145.742188 292.3125 145.558594 292.09375 145.550781 C 291.878906 145.53125 291.699219 145.707031 291.691406 145.925781 L 291.425781 152.296875 C 291.707031 152.582031 291.96875 152.851562 292.175781 153.113281 Z M 290.324219 145.972656 C 290.335938 145.757812 290.179688 145.566406 289.964844 145.550781 C 289.746094 145.53125 289.558594 145.695312 289.539062 145.910156 L 289.25 149.453125 C 289.488281 149.8125 289.730469 150.160156 289.953125 150.488281 Z M 288.617188 161.941406 C 288.628906 161.941406 288.636719 161.941406 288.648438 161.941406 C 288.851562 161.941406 289.023438 161.785156 289.039062 161.582031 L 289.503906 155.90625 C 289.253906 155.90625 288.996094 155.894531 288.722656 155.867188 L 288.257812 161.515625 C 288.242188 161.734375 288.402344 161.921875 288.617188 161.941406 Z M 205.214844 139.691406 C 205.371094 139.691406 205.53125 139.6875 205.691406 139.679688 C 205.90625 139.667969 206.074219 139.488281 206.0625 139.273438 C 206.054688 139.054688 205.867188 138.882812 205.65625 138.898438 C 204.621094 138.941406 203.585938 138.828125 202.589844 138.558594 C 202.382812 138.5 202.164062 138.625 202.109375 138.835938 C 202.054688 139.042969 202.175781 139.257812 202.382812 139.3125 C 203.308594 139.566406 204.257812 139.691406 205.214844 139.691406 Z M 208.296875 137.175781 C 208.238281 136.96875 208.023438 136.847656 207.816406 136.90625 C 205.425781 137.5625 202.796875 137.28125 200.601562 136.121094 C 200.410156 136.023438 200.175781 136.09375 200.074219 136.285156 C 199.972656 136.476562 200.046875 136.714844 200.238281 136.8125 C 201.765625 137.621094 203.492188 138.035156 205.21875 138.035156 C 206.164062 138.035156 207.109375 137.910156 208.023438 137.65625 C 208.234375 137.597656 208.355469 137.382812 208.296875 137.175781 Z M 210.460938 124.980469 C 210.621094 124.832031 210.632812 124.589844 210.488281 124.425781 C 210.035156 123.921875 209.363281 123.625 208.6875 123.625 C 208.683594 123.625 208.679688 123.625 208.675781 123.625 C 207.992188 123.628906 207.320312 123.9375 206.871094 124.449219 C 206.726562 124.609375 206.746094 124.855469 206.90625 125 C 206.980469 125.0625 207.070312 125.097656 207.164062 125.097656 C 207.273438 125.097656 207.378906 125.050781 207.457031 124.964844 C 207.761719 124.617188 208.21875 124.410156 208.679688 124.40625 C 208.683594 124.40625 208.6875 124.40625 208.6875 124.40625 C 209.144531 124.40625 209.601562 124.609375 209.90625 124.949219 C 210.050781 125.109375 210.300781 125.121094 210.460938 124.980469 Z M 201.539062 124.816406 C 201.699219 124.667969 201.710938 124.425781 201.566406 124.265625 C 201.113281 123.761719 200.441406 123.460938 199.765625 123.460938 C 199.761719 123.460938 199.757812 123.460938 199.753906 123.460938 C 199.070312 123.464844 198.394531 123.773438 197.945312 124.285156 C 197.804688 124.445312 197.820312 124.691406 197.984375 124.835938 C 198.058594 124.902344 198.148438 124.933594 198.242188 124.933594 C 198.347656 124.933594 198.457031 124.890625 198.535156 124.800781 C 198.839844 124.453125 199.296875 124.246094 199.757812 124.246094 C 200.191406 124.230469 200.675781 124.445312 200.984375 124.785156 C 201.128906 124.945312 201.378906 124.957031 201.539062 124.816406 Z M 209.648438 126.722656 C 209.648438 126.039062 209.214844 125.488281 208.679688 125.488281 C 208.144531 125.488281 207.714844 126.039062 207.714844 126.722656 C 207.714844 127.40625 208.144531 127.960938 208.679688 127.960938 C 209.214844 127.960938 209.648438 127.40625 209.648438 126.722656 Z M 200.121094 125.488281 C 199.585938 125.488281 199.15625 126.039062 199.15625 126.722656 C 199.15625 127.40625 199.585938 127.960938 200.121094 127.960938 C 200.65625 127.960938 201.089844 127.40625 201.089844 126.722656 C 201.089844 126.039062 200.65625 125.488281 200.121094 125.488281 Z M 207.335938 133.992188 C 207.875 133.300781 207.023438 130.609375 206.457031 129.03125 C 206.296875 128.589844 205.6875 128.566406 205.492188 128.988281 L 203.59375 133.105469 C 203.464844 133.378906 203.597656 133.707031 203.882812 133.8125 C 204.824219 134.152344 206.757812 134.734375 207.335938 133.992188 Z M 183.179688 102.589844 C 182.414062 102.300781 181.589844 102.132812 180.722656 102.132812 C 176.882812 102.132812 173.773438 105.246094 173.773438 109.082031 C 173.773438 109.964844 173.945312 110.800781 174.242188 111.578125 C 171.359375 112.425781 169.25 115.085938 169.25 118.242188 C 169.25 120.496094 170.328125 122.496094 171.992188 123.765625 C 170.570312 125.261719 169.691406 127.28125 169.691406 129.511719 C 169.691406 134.117188 173.425781 137.855469 178.039062 137.855469 C 178.269531 137.855469 178.5 137.84375 178.726562 137.820312 C 178.871094 137.84375 179.011719 137.855469 179.164062 137.855469 C 181.023438 137.855469 183.339844 135.648438 185.386719 132.867188 C 181.625 130.804688 181.082031 123.097656 184.34375 122.679688 C 188.402344 122.171875 188.714844 127.085938 188.714844 127.085938 L 188.714844 127.390625 C 189.5625 125.6875 190.15625 124.136719 190.335938 123.082031 C 192.609375 122.070312 194.34375 120.078125 195.003906 117.636719 C 196.035156 117.414062 197 117 197.851562 116.433594 C 199.125 118.070312 201.105469 119.128906 203.339844 119.128906 C 206.164062 119.128906 208.585938 117.441406 209.675781 115.027344 C 210.398438 116.773438 210.835938 118.671875 210.882812 120.664062 C 210.914062 121.824219 210.917969 123.003906 210.894531 124.195312 C 212.914062 122.980469 214.269531 120.773438 214.269531 118.242188 C 214.269531 116.96875 213.917969 115.777344 213.320312 114.75 C 215.09375 113.492188 216.257812 111.425781 216.257812 109.082031 C 216.257812 105.796875 213.972656 103.050781 210.90625 102.324219 C 210.511719 98.863281 207.574219 96.167969 204.003906 96.167969 C 202.300781 96.167969 200.742188 96.785156 199.53125 97.804688 C 197.886719 95.539062 195.226562 94.0625 192.210938 94.0625 C 187.386719 94.0625 183.457031 97.835938 183.179688 102.589844 Z M 289.15625 341.144531 C 279.152344 340.117188 277.382812 327.316406 277.382812 327.316406 L 258.996094 329.375 L 259.734375 351.046875 L 304.597656 351.046875 C 304.597656 351.046875 299.15625 342.175781 289.15625 341.144531 Z M 251.394531 253.734375 C 248.675781 244.625 240.003906 238.617188 230.523438 239.269531 L 186.886719 242.28125 C 189.335938 238.433594 192.671875 232.832031 195.882812 226.300781 C 194.230469 225.164062 192.738281 223.765625 191.488281 222.125 L 178.570312 205.175781 C 177.660156 206.394531 176.566406 207.511719 175.242188 208.484375 C 167.976562 213.855469 154.910156 214.261719 147.265625 213.964844 C 149.78125 196.242188 153.234375 175.523438 156.46875 168.359375 C 158.695312 163.429688 161.582031 159.929688 164.347656 157.464844 C 164.347656 157.464844 158.832031 158.976562 152.15625 172.003906 C 151.996094 173.308594 141.242188 213.535156 141.242188 213.535156 L 134.40625 242.550781 C 134.40625 242.550781 128.214844 266.46875 135.054688 274.933594 C 139.644531 280.613281 159.605469 304.304688 172.261719 319.300781 C 157.234375 317.691406 145.316406 317.933594 145.316406 317.933594 C 145.136719 317.925781 144.972656 317.945312 144.800781 317.953125 L 135.917969 315.867188 L 144.691406 317.957031 C 138.960938 318.234375 138.464844 324.792969 138.914062 329.699219 L 132.855469 328.4375 C 129.84375 317.921875 135.914062 315.867188 135.914062 315.867188 L 122.515625 312.722656 C 122.515625 312.722656 118.117188 315 117.957031 321.679688 C 117.792969 328.355469 117.957031 351.046875 117.957031 351.046875 L 145.480469 351.046875 C 145.480469 351.046875 145.644531 344.96875 138.636719 342.6875 L 135.140625 341.550781 C 133.796875 341.109375 133.210938 339.542969 133.933594 338.332031 L 136.683594 331.882812 C 136.683594 331.882812 137.765625 332.15625 139.195312 331.964844 C 139.472656 333.765625 139.792969 335.003906 139.792969 335.003906 L 186.195312 351.046875 L 199.011719 351.046875 C 209.566406 351.046875 218.117188 342.492188 218.117188 331.941406 L 187.144531 277.804688 C 205.492188 275.988281 226.382812 271.351562 226.382812 271.351562 C 226.382812 271.351562 226.585938 282.007812 230.824219 290.894531 C 235.054688 299.789062 254.128906 328.15625 254.128906 328.15625 L 271.519531 321.191406 Z M 200.390625 196.632812 C 201.875 198.859375 203.214844 201.183594 204.398438 203.582031 C 204.859375 201.675781 205.25 199.761719 205.535156 197.859375 C 209.199219 173.671875 201.261719 152.121094 201.261719 152.121094 L 198.691406 152.089844 L 200.242188 148.976562 C 200.433594 148.585938 200.277344 148.117188 199.890625 147.925781 C 199.5 147.730469 199.03125 147.890625 198.839844 148.277344 L 195.417969 155.15625 L 192.449219 151.355469 L 192.75 150.644531 C 192.921875 150.246094 192.738281 149.789062 192.339844 149.617188 C 191.941406 149.449219 191.484375 149.632812 191.3125 150.027344 L 188.503906 156.578125 L 173.476562 148.285156 C 173.101562 148.078125 172.625 148.214844 172.414062 148.589844 C 172.203125 148.96875 172.34375 149.445312 172.71875 149.65625 L 188.503906 158.371094 C 188.699219 158.472656 188.925781 158.496094 189.136719 158.425781 C 189.347656 158.351562 189.511719 158.195312 189.601562 157.992188 L 191.746094 152.996094 L 194.855469 156.976562 C 195.316406 158.628906 199.539062 174.492188 196.78125 190.019531 C 196.707031 190.445312 196.992188 190.851562 197.417969 190.925781 C 197.460938 190.9375 197.507812 190.9375 197.554688 190.9375 C 197.925781 190.9375 198.253906 190.671875 198.324219 190.292969 C 201.074219 174.816406 197.042969 159.050781 196.398438 156.691406 L 198.148438 153.179688 C 204.765625 168.984375 201.832031 196.632812 201.832031 196.632812 Z M 365.882812 295.859375 L 365.847656 295.859375 L 365.847656 280.949219 C 365.847656 280.300781 365.324219 279.773438 364.675781 279.773438 C 364.027344 279.773438 363.5 280.300781 363.5 280.949219 L 363.5 331.144531 L 342.050781 339.742188 L 342.050781 185.597656 L 337.109375 186.84375 L 337.109375 207.550781 L 336.179688 207.550781 L 336.179688 224.765625 L 337.109375 224.765625 L 337.109375 264.753906 C 332.464844 260.027344 326.011719 257.082031 318.875 257.082031 C 314.253906 257.082031 310.496094 253.324219 310.496094 248.707031 L 310.496094 246.144531 L 293.277344 246.144531 L 293.277344 248.707031 C 293.277344 262.816406 304.757812 274.300781 318.875 274.300781 C 323.496094 274.300781 327.253906 278.058594 327.253906 282.679688 L 327.253906 286.394531 L 337.109375 286.394531 L 337.109375 292.65625 L 327.253906 292.65625 L 327.253906 293.460938 L 337.109375 293.460938 L 337.109375 299.722656 L 327.253906 299.722656 L 327.253906 332.398438 L 337.109375 332.398438 L 337.109375 339.761719 L 337.148438 339.769531 C 336.992188 340.398438 337.371094 341.039062 338 341.195312 L 342.132812 342.238281 L 365.847656 332.734375 L 365.847656 313.089844 L 365.882812 313.089844 C 366.980469 313.089844 367.871094 312.199219 367.871094 311.101562 L 367.871094 297.847656 C 367.871094 296.75 366.980469 295.859375 365.882812 295.859375 Z M 365.882812 212.855469 L 365.847656 212.855469 L 365.847656 194.664062 C 365.847656 194.015625 365.324219 193.492188 364.675781 193.492188 C 364.027344 193.492188 363.5 194.015625 363.5 194.664062 L 363.5 272.445312 C 363.5 273.09375 364.027344 273.617188 364.675781 273.617188 C 365.324219 273.617188 365.847656 273.09375 365.847656 272.445312 L 365.847656 230.085938 L 365.882812 230.085938 C 366.980469 230.085938 367.871094 229.195312 367.871094 228.097656 L 367.871094 214.84375 C 367.871094 213.742188 366.980469 212.855469 365.882812 212.855469 Z M 331.480469 224.765625 L 331.480469 207.550781 L 329.113281 207.550781 L 329.113281 224.765625 Z M 293.277344 241.449219 L 310.496094 241.449219 L 310.496094 239.082031 L 293.277344 239.082031 Z M 310.496094 234.382812 L 293.277344 234.382812 L 293.277344 194.664062 L 310.496094 194.664062 L 310.496094 207.550781 L 324.414062 207.550781 L 324.414062 224.765625 L 310.496094 224.765625 L 310.496094 234.382812 " fill-opacity="1" fill-rule="nonzero"/></svg>